<mxfile host="app.diagrams.net" modified="2023-08-08T21:47:27.443Z" agent="Mozilla/5.0 (Windows NT 10.0; Win64; x64) AppleWebKit/537.36 (KHTML, like Gecko) Chrome/113.0.0.0 Safari/537.36 Edg/113.0.1774.35" version="21.6.7" etag="q9b4Lq2NBhrKRlJxZtKY" type="device">
  <diagram id="lkycZs2p_ccakb3ZJ8Cy" name="Arch">
    <mxGraphModel dx="1153" dy="782" grid="1" gridSize="10" guides="1" tooltips="1" connect="1" arrows="1" fold="1" page="1" pageScale="1" pageWidth="850" pageHeight="1100" math="0" shadow="0">
      <root>
        <mxCell id="0" />
        <mxCell id="1" parent="0" />
        <mxCell id="esvKRe-U5YeSRbtVHKv_-2" value="" style="rounded=0;whiteSpace=wrap;html=1;sketch=1;hachureGap=4;jiggle=2;curveFitting=1;fontFamily=Architects Daughter;fontSource=https%3A%2F%2Ffonts.googleapis.com%2Fcss%3Ffamily%3DArchitects%2BDaughter;fontSize=20;" vertex="1" parent="1">
          <mxGeometry x="20" y="58.5" width="530" height="210" as="geometry" />
        </mxCell>
        <mxCell id="esvKRe-U5YeSRbtVHKv_-3" value="" style="shape=image;verticalLabelPosition=bottom;labelBackgroundColor=#ffffff;verticalAlign=top;aspect=fixed;imageAspect=0;image=data:image/svg+xml,PHN2ZyB4bWxuczpjYz0iaHR0cDovL2NyZWF0aXZlY29tbW9ucy5vcmcvbnMjIiB4bWxuczpkYz0iaHR0cDovL3B1cmwub3JnL2RjL2VsZW1lbnRzLzEuMS8iIHhtbG5zOmlua3NjYXBlPSJodHRwOi8vd3d3Lmlua3NjYXBlLm9yZy9uYW1lc3BhY2VzL2lua3NjYXBlIiB4bWxuczpyZGY9Imh0dHA6Ly93d3cudzMub3JnLzE5OTkvMDIvMjItcmRmLXN5bnRheC1ucyMiIHhtbG5zOnNvZGlwb2RpPSJodHRwOi8vc29kaXBvZGkuc291cmNlZm9yZ2UubmV0L0RURC9zb2RpcG9kaS0wLmR0ZCIgeG1sbnM6c3ZnPSJodHRwOi8vd3d3LnczLm9yZy8yMDAwL3N2ZyIgeG1sbnM9Imh0dHA6Ly93d3cudzMub3JnLzIwMDAvc3ZnIiB4bWxuczp4bGluaz0iaHR0cDovL3d3dy53My5vcmcvMTk5OS94bGluayIgdmVyc2lvbj0iMS4xIiBpZD0ic3ZnNjQyMyIgaW5rc2NhcGU6dmVyc2lvbj0iMC45Mi4zICgyNDA1NTQ2LCAyMDE4LTAzLTExKSIgc29kaXBvZGk6ZG9jbmFtZT0ia3ViZXJuZXRlcy5zdmciIHg9IjBweCIgeT0iMHB4IiB2aWV3Qm94PSIwIDAgMzQuNyAzMy43MSIgc3R5bGU9ImVuYWJsZS1iYWNrZ3JvdW5kOm5ldyAwIDAgMzQuNyAzMy43MTsiIHhtbDpzcGFjZT0icHJlc2VydmUiPiYjeGE7PHNvZGlwb2RpOm5hbWVkdmlldyBib3JkZXJjb2xvcj0iIzY2NjY2NiIgYm9yZGVyb3BhY2l0eT0iMSIgZml0LW1hcmdpbi1ib3R0b209IjAiIGZpdC1tYXJnaW4tbGVmdD0iMCIgZml0LW1hcmdpbi1yaWdodD0iMCIgZml0LW1hcmdpbi10b3A9IjAiIGdyaWR0b2xlcmFuY2U9IjEwIiBndWlkZXRvbGVyYW5jZT0iMTAiIGlkPSJuYW1lZHZpZXc2NDI1IiBpbmtzY2FwZTpjdXJyZW50LWxheWVyPSJzdmc2NDIzIiBpbmtzY2FwZTpjeD0iMjMuMTM1NjMyIiBpbmtzY2FwZTpjeT0iMjIuNDcxOTk0IiBpbmtzY2FwZTpwYWdlb3BhY2l0eT0iMCIgaW5rc2NhcGU6cGFnZXNoYWRvdz0iMiIgaW5rc2NhcGU6d2luZG93LWhlaWdodD0iMTAxNyIgaW5rc2NhcGU6d2luZG93LW1heGltaXplZD0iMSIgaW5rc2NhcGU6d2luZG93LXdpZHRoPSIxOTIwIiBpbmtzY2FwZTp3aW5kb3cteD0iLTgiIGlua3NjYXBlOndpbmRvdy15PSItOCIgaW5rc2NhcGU6em9vbT0iMTkuMjg4MzkzIiBvYmplY3R0b2xlcmFuY2U9IjEwIiBwYWdlY29sb3I9IiNmZmZmZmYiIHNob3dncmlkPSJmYWxzZSI+JiN4YTsJPC9zb2RpcG9kaTpuYW1lZHZpZXc+JiN4YTs8ZyBpZD0ic2hhcGUzNTA0LTIiIHRyYW5zZm9ybT0idHJhbnNsYXRlKDIuMjkwNDQ1NywtMi4yODk1MTk5KSI+JiN4YTsJPHRpdGxlIGlkPSJ0aXRsZTY0MDAiPlNoZWV0LjM1MDQ8L3RpdGxlPiYjeGE7CSYjeGE7CQk8cGF0aCBpZD0icGF0aDY0MDIiIGlua3NjYXBlOmNvbm5lY3Rvci1jdXJ2YXR1cmU9IjAiIHN0eWxlPSJmaWxsOiNGRkZGRkY7c3Ryb2tlOiNGRkZGRkY7c3Ryb2tlLXdpZHRoOjQuNTgxO3N0cm9rZS1saW5lY2FwOnJvdW5kO3N0cm9rZS1saW5lam9pbjpyb3VuZDtzdHJva2UtbWl0ZXJsaW1pdDozOyIgZD0iICAgTTE1LjA2LDQuNThsMTIuMDgsNS43N2wyLjk4LDEyLjk2bC04LjM1LDEwLjRIOC4zNkwwLDIzLjMybDIuOTgtMTIuOTdMMTUuMDYsNC41OHoiLz4mI3hhOzwvZz4mI3hhOzxnIGlkPSJzaGFwZTM1MDUtNCIgdHJhbnNmb3JtPSJ0cmFuc2xhdGUoMC44OTgyMTU3MSwtMC44ODg1OTk4NSkiPiYjeGE7CTx0aXRsZSBpZD0idGl0bGU2NDA1Ij5TaGVldC4zNTA1PC90aXRsZT4mI3hhOwk8cGF0aCBpZD0icGF0aDY0MDciIGlua3NjYXBlOmNvbm5lY3Rvci1jdXJ2YXR1cmU9IjAiIHN0eWxlPSJmaWxsOiMzMjZDRTU7IiBkPSJNMTYuMzQsMS43OEMxNi4wNSwxLjgsMTUuNzYsMS44NywxNS41LDJMNC4wNiw3LjQ2ICAgYy0wLjYsMC4yOS0xLjAzLDAuODMtMS4xOCwxLjQ3TDAuMDYsMjEuMjFjLTAuMTQsMC41OC0wLjAzLDEuMTcsMC4yOSwxLjY3YzAuMDQsMC4wNiwwLjA4LDAuMTEsMC4xMywwLjE3TDguNCwzMi45ICAgYzAuNDEsMC41MSwxLjA0LDAuODEsMS43LDAuODFoMTIuN2MwLjY3LDAsMS4zLTAuMywxLjcxLTAuODJsNy45Mi05Ljg0YzAuNDEtMC41MiwwLjU3LTEuMiwwLjQyLTEuODRMMzAuMDMsOC45MyAgIGMtMC4xNS0wLjY0LTAuNTktMS4xOC0xLjE5LTEuNDdMMTcuNCwyQzE3LjA3LDEuODQsMTYuNywxLjc2LDE2LjM0LDEuNzh6Ii8+JiN4YTs8L2c+JiN4YTs8ZyBpZD0ic2hhcGUzNTA2LTYiIHRyYW5zZm9ybT0idHJhbnNsYXRlKDAuODk4MjE1NzEsLTAuODg4NTk5ODUpIj4mI3hhOwk8dGl0bGUgaWQ9InRpdGxlNjQxMCI+U2hlZXQuMzUwNjwvdGl0bGU+JiN4YTsJPHBhdGggaWQ9InBhdGg2NDEyIiBpbmtzY2FwZTpjb25uZWN0b3ItY3VydmF0dXJlPSIwIiBzdHlsZT0iZmlsbDpub25lOyIgZD0iTTE2LjM0LDEuNzhDMTYuMDUsMS44LDE1Ljc2LDEuODcsMTUuNSwyTDQuMDYsNy40NiAgIGMtMC42LDAuMjktMS4wMywwLjgzLTEuMTgsMS40N0wwLjA2LDIxLjIxYy0wLjE0LDAuNTgtMC4wMywxLjE3LDAuMjksMS42N2MwLjA0LDAuMDYsMC4wOCwwLjExLDAuMTMsMC4xN0w4LjQsMzIuOSAgIGMwLjQxLDAuNTEsMS4wNCwwLjgxLDEuNywwLjgxaDEyLjdjMC42NywwLDEuMy0wLjMsMS43MS0wLjgybDcuOTItOS44NGMwLjQxLTAuNTIsMC41Ny0xLjIsMC40Mi0xLjg0TDMwLjAzLDguOTMgICBjLTAuMTUtMC42NC0wLjU5LTEuMTgtMS4xOS0xLjQ3TDE3LjQsMkMxNy4wNywxLjg0LDE2LjcsMS43NiwxNi4zNCwxLjc4Ii8+JiN4YTs8L2c+JiN4YTs8ZyBpZD0ic2hhcGUzNTA3LTkiIHRyYW5zZm9ybT0idHJhbnNsYXRlKDUuMjkwMzg1NywtNS4wNzA3OTk5KSI+JiN4YTsJPHRpdGxlIGlkPSJ0aXRsZTY0MTUiPlNoZWV0LjM1MDc8L3RpdGxlPiYjeGE7CSYjeGE7CQk8cGF0aCBpZD0icGF0aDY0MTciIGlua3NjYXBlOmNvbm5lY3Rvci1jdXJ2YXR1cmU9IjAiIHN0eWxlPSJmaWxsOiNGRkZGRkY7c3Ryb2tlOiNGRkZGRkY7c3Ryb2tlLXdpZHRoOjAuMDExMjtzdHJva2UtbGluZWNhcDpyb3VuZDtzdHJva2UtbGluZWpvaW46cm91bmQ7c3Ryb2tlLW1pdGVybGltaXQ6MzsiIGQ9IiAgIE0xMi4wNiwxMC4xNWMtMC4zOCwwLTAuNjgsMC4zNC0wLjY4LDAuNzZ2MC4wMWMwLDAuMDYsMCwwLjEzLDAsMC4xOGMwLjAxLDAuMjQsMC4wNiwwLjQzLDAuMDksMC42NWMwLjA2LDAuNDgsMC4xLDAuODgsMC4wNywxLjI0ICAgYy0wLjAyLDAuMTQtMC4xMywwLjI3LTAuMjIsMC4zNmwtMC4wMSwwLjI5Yy0wLjQxLDAuMDMtMC44MywwLjA5LTEuMjQsMC4xOWMtMS43OCwwLjQtMy4zMSwxLjMyLTQuNDcsMi41NSAgIGMtMC4wOC0wLjA1LTAuMjEtMC4xNC0wLjI1LTAuMTdjLTAuMTIsMC4wMS0wLjI1LDAuMDUtMC40MS0wLjA0Yy0wLjMxLTAuMjEtMC41OC0wLjQ5LTAuOTItMC44NGMtMC4xNi0wLjE2LTAuMjctMC4zMi0wLjQ1LTAuNDggICBjLTAuMDUtMC4wMy0wLjExLTAuMDgtMC4xNS0wLjEyYy0wLjE1LTAuMTEtMC4zMi0wLjE3LTAuNDgtMC4xOGMtMC4yMSwwLTAuNDIsMC4wOC0wLjU1LDAuMjRjLTAuMjMsMC4zLTAuMTYsMC43NSwwLjE3LDEuMDJoMC4wMSAgIGMwLjA0LDAuMDQsMC4xLDAuMDksMC4xNCwwLjEyYzAuMiwwLjE0LDAuMzgsMC4yMSwwLjU3LDAuMzNjMC40MSwwLjI1LDAuNzUsMC40NiwxLjAyLDAuNzFjMC4xMSwwLjEyLDAuMTIsMC4zMSwwLjE0LDAuNGwwLjIyLDAuMiAgIGMtMS4xOCwxLjc2LTEuNzIsMy45NS0xLjQsNi4xN2wtMC4yOSwwLjA5Yy0wLjA3LDAuMDktMC4xOCwwLjI1LTAuMjksMC4yOWMtMC4zNSwwLjExLTAuNzUsMC4xNS0xLjIzLDAuMiAgIGMtMC4yMiwwLjAyLTAuNDIsMC4wMS0wLjY2LDAuMDZjLTAuMDUsMC4wMS0wLjEyLDAuMDMtMC4xOCwwLjA0YzAsMCwwLDAtMC4wMSwwbDAsMGMtMC40MSwwLjEtMC42NywwLjQ3LTAuNTgsMC44NCAgIGMwLjA4LDAuMzYsMC40NywwLjU5LDAuODgsMC41aDAuMDFsMC4wMS0wLjAxYzAuMDYtMC4wMSwwLjEzLTAuMDIsMC4xOC0wLjA0YzAuMjMtMC4wNiwwLjQtMC4xNSwwLjYxLTAuMjMgICBjMC40Ni0wLjE2LDAuODMtMC4zLDEuMi0wLjM1YzAuMTUtMC4wMiwwLjMxLDAuMDksMC4zOSwwLjE0bDAuMy0wLjA2YzAuNjksMi4xNCwyLjEzLDMuODYsMy45NSw0LjkzbC0wLjEzLDAuMyAgIGMwLjA1LDAuMTIsMC4xLDAuMjgsMC4wNiwwLjM5Yy0wLjEzLDAuMzQtMC4zNiwwLjcxLTAuNjEsMS4xMmMtMC4xMywwLjE4LTAuMjYsMC4zMy0wLjM3LDAuNTRjLTAuMDMsMC4wNi0wLjA2LDAuMTMtMC4wOSwwLjE5ICAgYy0wLjE4LDAuMzctMC4wNSwwLjgxLDAuMjksMC45N2MwLjM0LDAuMTcsMC43Ny0wLjAxLDAuOTUtMC4zOWwwLDBsMCwwYzAuMDMtMC4wNSwwLjA2LTAuMTIsMC4wOC0wLjE3ICAgYzAuMS0wLjIzLDAuMTMtMC40MiwwLjItMC42M2MwLjE4LTAuNDYsMC4yOC0wLjkzLDAuNTMtMS4yM2MwLjA3LTAuMDgsMC4xOC0wLjEyLDAuMjktMC4xNWwwLjE2LTAuMjggICBjMS41OSwwLjYxLDMuMzcsMC43OCw1LjE0LDAuMzdjMC40MS0wLjA5LDAuOC0wLjIxLDEuMTgtMC4zNWMwLjA1LDAuMDgsMC4xMiwwLjIzLDAuMTUsMC4yNmMwLjExLDAuMDQsMC4yNCwwLjA2LDAuMzQsMC4yMSAgIGMwLjE5LDAuMzMsMC4zMiwwLjcsMC40OCwxLjE2YzAuMDYsMC4yMSwwLjEsMC40LDAuMiwwLjYyYzAuMDIsMC4wNiwwLjA1LDAuMTMsMC4wOCwwLjE4YzAuMTgsMC4zOCwwLjYsMC41NSwwLjk1LDAuMzkgICBjMC4zNC0wLjE3LDAuNDYtMC42LDAuMjktMC45N2MtMC4wMy0wLjA2LTAuMDctMC4xNC0wLjA5LTAuMTljLTAuMTItMC4yMS0wLjI0LTAuMzYtMC4zNy0wLjU1Yy0wLjI2LTAuNC0wLjQ3LTAuNzQtMC42MS0xLjA4ICAgYy0wLjA1LTAuMTgsMC4wMS0wLjI5LDAuMDYtMC40MWMtMC4wMy0wLjAzLTAuMDktMC4xOS0wLjEyLTAuMjdjMS45LTEuMTIsMy4yOS0yLjkxLDMuOTUtNC45N2MwLjA5LDAuMDEsMC4yNCwwLjA0LDAuMjksMC4wNSAgIGMwLjEtMC4wNywwLjItMC4xNiwwLjM5LTAuMTRjMC4zNiwwLjA1LDAuNzQsMC4xOSwxLjE5LDAuMzVjMC4yMSwwLjA4LDAuMzgsMC4xOCwwLjYxLDAuMjRjMC4wNSwwLjAxLDAuMTIsMC4wMiwwLjE4LDAuMDQgICBjMCwwLDAuMDEsMCwwLjAyLDBsMCwwYzAuNDEsMC4wOSwwLjgtMC4xMywwLjg5LTAuNWMwLjA4LTAuMzYtMC4xOC0wLjczLTAuNTgtMC44M2MtMC4wNi0wLjAyLTAuMTQtMC4wNC0wLjItMC4wNSAgIGMtMC4yNC0wLjA0LTAuNDMtMC4wMy0wLjY2LTAuMDVjLTAuNDgtMC4wNS0wLjg3LTAuMDktMS4yMy0wLjJjLTAuMTQtMC4wNi0wLjI0LTAuMjMtMC4yOS0wLjNsLTAuMjgtMC4wOCAgIGMwLjE1LTEuMDQsMC4xMS0yLjEyLTAuMTQtMy4yYy0wLjI1LTEuMDktMC42OS0yLjA4LTEuMjgtMi45NmMwLjA3LTAuMDcsMC4yLTAuMTksMC4yNC0wLjIyYzAuMDEtMC4xMywwLTAuMjUsMC4xMy0wLjM5ICAgYzAuMjctMC4yNSwwLjYxLTAuNDYsMS4wMi0wLjcyYzAuMTktMC4xMSwwLjM3LTAuMTgsMC41Ny0wLjMzYzAuMDQtMC4wMywwLjEtMC4wOCwwLjE1LTAuMTJjMC4zMy0wLjI2LDAuNC0wLjcxLDAuMTctMS4wMSAgIGMtMC4yNC0wLjI5LTAuNy0wLjMyLTEuMDMtMC4wNmMtMC4wNCwwLjA0LTAuMTEsMC4wOS0wLjE1LDAuMTJjLTAuMTgsMC4xNi0wLjMsMC4zMi0wLjQ1LDAuNDhjLTAuMzQsMC4zNC0wLjYyLDAuNjMtMC45MiwwLjg0ICAgYy0wLjE0LDAuMDctMC4zMywwLjA1LTAuNDIsMC4wNGwtMC4yNiwwLjE5Yy0xLjQ4LTEuNTYtMy41MS0yLjU1LTUuNjktMi43NWMwLTAuMDktMC4wMS0wLjI1LTAuMDEtMC4zICAgYy0wLjA5LTAuMDktMC4yLTAuMTYtMC4yMy0wLjM1Yy0wLjAzLTAuMzYsMC4wMy0wLjc2LDAuMDgtMS4yNGMwLjA0LTAuMjIsMC4wOS0wLjQxLDAuMS0wLjY1YzAtMC4wNiwwLTAuMTMsMC0wLjE5ICAgQzEyLjc1LDEwLjQ5LDEyLjQ0LDEwLjE1LDEyLjA2LDEwLjE1eiBNMTEuMiwxNS40NkwxMSwxOS4wNWgtMC4wMWwwLDBjLTAuMDIsMC4zMy0wLjI4LDAuNTgtMC42MSwwLjU4ICAgYy0wLjEzLDAtMC4yNS0wLjA0LTAuMzUtMC4xMWgtMC4wMWwtMi45NC0yLjA5bDAsMGMwLjktMC44OSwyLjA2LTEuNTUsMy4zOS0xLjg1QzEwLjcyLDE1LjUyLDEwLjk2LDE1LjQ4LDExLjIsMTUuNDZ6ICAgIE0xMi45MiwxNS40NmMxLjU2LDAuMTksMywwLjg5LDQuMSwxLjk3bC0yLjkyLDIuMDhsLTAuMDEtMC4wMWwwLDBjLTAuMjYsMC4xOS0wLjYzLDAuMTQtMC44My0wLjExYy0wLjA5LTAuMS0wLjEzLTAuMjItMC4xMy0wLjM1ICAgTDEyLjkyLDE1LjQ2eiBNNi4wMSwxOC43N2wyLjY5LDIuNDFMOC42OSwyMS4ybDAsMGMwLjI1LDAuMjEsMC4yOCwwLjU3LDAuMDgsMC44MmMtMC4wOCwwLjExLTAuMTksMC4xOC0wLjMxLDAuMjFsLTAuMDEsMC4wMSAgIGwtMy40NCwxbDAsMEM0LjgzLDIxLjYzLDUuMjEsMjAuMDgsNi4wMSwxOC43N3ogTTE4LjEsMTguNzhjMC40LDAuNjQsMC43LDEuMzcsMC44OCwyLjE1YzAuMTgsMC43NywwLjIyLDEuNTUsMC4xNSwyLjNsLTMuNDctMSAgIHYtMC4wMmwwLDBjLTAuMzEtMC4wOC0wLjUtMC40LTAuNDMtMC43MWMwLjAzLTAuMTMsMC4xLTAuMjQsMC4xOS0wLjMydi0wLjAxTDE4LjEsMTguNzh6IE0xMS41MSwyMS4zNmgxLjFsMC42OSwwLjg2bC0wLjI1LDEuMDcgICBsLTAuOTksMC40OGwtMC45OS0wLjQ4bC0wLjI1LTEuMDdMMTEuNTEsMjEuMzZ6IE0xNS4wNCwyNC4yOWMwLjA1LDAsMC4xLDAuMDEsMC4xNCwwLjAxaDAuMDFsMy41NiwwLjZsMCwwICAgYy0wLjUyLDEuNDYtMS41MiwyLjc0LTIuODUsMy41OGwtMS4zOS0zLjM0aDAuMDFsMCwwYy0wLjEzLTAuMywwLTAuNjQsMC4yOS0wLjc5QzE0Ljg5LDI0LjMyLDE0Ljk2LDI0LjMsMTUuMDQsMjQuMjl6IE05LjA1LDI0LjMxICAgYzAuMjcsMCwwLjUyLDAuMTksMC41OCwwLjQ3YzAuMDMsMC4xMywwLjAyLDAuMjYtMC4wMywwLjM3bDAuMDEsMC4wMWwtMS4zNywzLjMxbDAsMGMtMS4yOC0wLjgyLTIuMy0yLjA1LTIuODUtMy41NmwzLjU0LTAuNnYwLjAxICAgbDAsMEM4Ljk3LDI0LjMxLDkuMDEsMjQuMzEsOS4wNSwyNC4zMXogTTEyLjA0LDI1Ljc2YzAuMDktMC4wMSwwLjE5LDAuMDIsMC4yOCwwLjA2YzAuMTIsMC4wNiwwLjIxLDAuMTUsMC4yNywwLjI2aDAuMDFsMS43NSwzLjE1ICAgbDAsMGMtMC4yMywwLjA3LTAuNDYsMC4xNC0wLjcsMC4xOWMtMS4zMywwLjMtMi42NiwwLjIxLTMuODYtMC4ybDEuNzQtMy4xNGwwLDBsMCwwQzExLjYzLDI1Ljg4LDExLjgzLDI1Ljc3LDEyLjA0LDI1Ljc2eiIvPiYjeGE7PC9nPiYjeGE7PC9zdmc+;sketch=1;hachureGap=4;jiggle=2;curveFitting=1;fontFamily=Architects Daughter;fontSource=https%3A%2F%2Ffonts.googleapis.com%2Fcss%3Ffamily%3DArchitects%2BDaughter;fontSize=20;" vertex="1" parent="1">
          <mxGeometry x="25.5" y="68.5" width="35" height="34" as="geometry" />
        </mxCell>
        <mxCell id="esvKRe-U5YeSRbtVHKv_-7" value="&lt;b&gt;Node&lt;/b&gt;" style="text;html=1;align=center;verticalAlign=middle;resizable=0;points=[];autosize=1;strokeColor=none;fillColor=none;fontSize=20;fontFamily=Architects Daughter;" vertex="1" parent="1">
          <mxGeometry x="52.5" y="65.5" width="70" height="40" as="geometry" />
        </mxCell>
        <mxCell id="esvKRe-U5YeSRbtVHKv_-9" value="172.12.0.1" style="rounded=0;whiteSpace=wrap;html=1;sketch=1;hachureGap=4;jiggle=2;curveFitting=1;fontFamily=Architects Daughter;fontSource=https%3A%2F%2Ffonts.googleapis.com%2Fcss%3Ffamily%3DArchitects%2BDaughter;fontSize=20;" vertex="1" parent="1">
          <mxGeometry x="165" y="196.5" width="100" height="60" as="geometry" />
        </mxCell>
        <mxCell id="esvKRe-U5YeSRbtVHKv_-10" value="172.12.0.2" style="rounded=0;whiteSpace=wrap;html=1;sketch=1;hachureGap=4;jiggle=2;curveFitting=1;fontFamily=Architects Daughter;fontSource=https%3A%2F%2Ffonts.googleapis.com%2Fcss%3Ffamily%3DArchitects%2BDaughter;fontSize=20;" vertex="1" parent="1">
          <mxGeometry x="305" y="196.5" width="100" height="60" as="geometry" />
        </mxCell>
        <mxCell id="esvKRe-U5YeSRbtVHKv_-11" value="" style="sketch=0;html=1;dashed=0;whitespace=wrap;fillColor=#2875E2;strokeColor=#ffffff;points=[[0.005,0.63,0],[0.1,0.2,0],[0.9,0.2,0],[0.5,0,0],[0.995,0.63,0],[0.72,0.99,0],[0.5,1,0],[0.28,0.99,0]];verticalLabelPosition=bottom;align=center;verticalAlign=top;shape=mxgraph.kubernetes.icon;prIcon=pod;hachureGap=4;jiggle=2;curveFitting=1;fontFamily=Architects Daughter;fontSource=https%3A%2F%2Ffonts.googleapis.com%2Fcss%3Ffamily%3DArchitects%2BDaughter;fontSize=20;" vertex="1" parent="1">
          <mxGeometry x="150" y="186.5" width="30" height="28" as="geometry" />
        </mxCell>
        <mxCell id="esvKRe-U5YeSRbtVHKv_-12" value="&lt;b&gt;PodCIDR&lt;/b&gt;: 172.12.0.0/26" style="rounded=0;whiteSpace=wrap;html=1;sketch=1;hachureGap=4;jiggle=2;curveFitting=1;fontFamily=Architects Daughter;fontSource=https%3A%2F%2Ffonts.googleapis.com%2Fcss%3Ffamily%3DArchitects%2BDaughter;fontSize=16;" vertex="1" parent="1">
          <mxGeometry x="350" y="68.5" width="185" height="34" as="geometry" />
        </mxCell>
        <mxCell id="esvKRe-U5YeSRbtVHKv_-8" value="" style="sketch=0;html=1;dashed=0;whitespace=wrap;fillColor=#2875E2;strokeColor=#ffffff;points=[[0.005,0.63,0],[0.1,0.2,0],[0.9,0.2,0],[0.5,0,0],[0.995,0.63,0],[0.72,0.99,0],[0.5,1,0],[0.28,0.99,0]];verticalLabelPosition=bottom;align=center;verticalAlign=top;shape=mxgraph.kubernetes.icon;prIcon=pod;hachureGap=4;jiggle=2;curveFitting=1;fontFamily=Architects Daughter;fontSource=https%3A%2F%2Ffonts.googleapis.com%2Fcss%3Ffamily%3DArchitects%2BDaughter;fontSize=20;" vertex="1" parent="1">
          <mxGeometry x="290" y="186.5" width="30" height="28" as="geometry" />
        </mxCell>
        <mxCell id="esvKRe-U5YeSRbtVHKv_-92" style="edgeStyle=orthogonalEdgeStyle;rounded=0;sketch=1;hachureGap=4;jiggle=2;curveFitting=1;orthogonalLoop=1;jettySize=auto;html=1;exitX=0.5;exitY=1;exitDx=0;exitDy=0;entryX=1;entryY=0.5;entryDx=0;entryDy=0;fontFamily=Architects Daughter;fontSource=https%3A%2F%2Ffonts.googleapis.com%2Fcss%3Ffamily%3DArchitects%2BDaughter;fontSize=16;" edge="1" parent="1" source="esvKRe-U5YeSRbtVHKv_-80" target="esvKRe-U5YeSRbtVHKv_-9">
          <mxGeometry relative="1" as="geometry" />
        </mxCell>
        <mxCell id="esvKRe-U5YeSRbtVHKv_-93" style="edgeStyle=orthogonalEdgeStyle;rounded=0;sketch=1;hachureGap=4;jiggle=2;curveFitting=1;orthogonalLoop=1;jettySize=auto;html=1;exitX=0.5;exitY=1;exitDx=0;exitDy=0;entryX=0;entryY=0.5;entryDx=0;entryDy=0;fontFamily=Architects Daughter;fontSource=https%3A%2F%2Ffonts.googleapis.com%2Fcss%3Ffamily%3DArchitects%2BDaughter;fontSize=16;" edge="1" parent="1" source="esvKRe-U5YeSRbtVHKv_-80" target="esvKRe-U5YeSRbtVHKv_-10">
          <mxGeometry relative="1" as="geometry" />
        </mxCell>
        <mxCell id="esvKRe-U5YeSRbtVHKv_-80" value="&lt;b&gt;Kubernetes IPAM&lt;/b&gt;" style="rounded=0;whiteSpace=wrap;html=1;sketch=1;hachureGap=4;jiggle=2;curveFitting=1;fontFamily=Architects Daughter;fontSource=https%3A%2F%2Ffonts.googleapis.com%2Fcss%3Ffamily%3DArchitects%2BDaughter;fontSize=20;" vertex="1" parent="1">
          <mxGeometry x="30" y="131.5" width="510" height="47" as="geometry" />
        </mxCell>
        <mxCell id="esvKRe-U5YeSRbtVHKv_-81" value="" style="shape=image;verticalLabelPosition=bottom;labelBackgroundColor=#ffffff;verticalAlign=top;aspect=fixed;imageAspect=0;image=data:image/svg+xml,PHN2ZyB4bWxuczpjYz0iaHR0cDovL2NyZWF0aXZlY29tbW9ucy5vcmcvbnMjIiB4bWxuczpkYz0iaHR0cDovL3B1cmwub3JnL2RjL2VsZW1lbnRzLzEuMS8iIHhtbG5zOmlua3NjYXBlPSJodHRwOi8vd3d3Lmlua3NjYXBlLm9yZy9uYW1lc3BhY2VzL2lua3NjYXBlIiB4bWxuczpyZGY9Imh0dHA6Ly93d3cudzMub3JnLzE5OTkvMDIvMjItcmRmLXN5bnRheC1ucyMiIHhtbG5zOnNvZGlwb2RpPSJodHRwOi8vc29kaXBvZGkuc291cmNlZm9yZ2UubmV0L0RURC9zb2RpcG9kaS0wLmR0ZCIgeG1sbnM6c3ZnPSJodHRwOi8vd3d3LnczLm9yZy8yMDAwL3N2ZyIgeG1sbnM9Imh0dHA6Ly93d3cudzMub3JnLzIwMDAvc3ZnIiB4bWxuczp4bGluaz0iaHR0cDovL3d3dy53My5vcmcvMTk5OS94bGluayIgdmVyc2lvbj0iMS4xIiBpZD0ic3ZnNjQyMyIgaW5rc2NhcGU6dmVyc2lvbj0iMC45Mi4zICgyNDA1NTQ2LCAyMDE4LTAzLTExKSIgc29kaXBvZGk6ZG9jbmFtZT0ia3ViZXJuZXRlcy5zdmciIHg9IjBweCIgeT0iMHB4IiB2aWV3Qm94PSIwIDAgMzQuNyAzMy43MSIgc3R5bGU9ImVuYWJsZS1iYWNrZ3JvdW5kOm5ldyAwIDAgMzQuNyAzMy43MTsiIHhtbDpzcGFjZT0icHJlc2VydmUiPiYjeGE7PHNvZGlwb2RpOm5hbWVkdmlldyBib3JkZXJjb2xvcj0iIzY2NjY2NiIgYm9yZGVyb3BhY2l0eT0iMSIgZml0LW1hcmdpbi1ib3R0b209IjAiIGZpdC1tYXJnaW4tbGVmdD0iMCIgZml0LW1hcmdpbi1yaWdodD0iMCIgZml0LW1hcmdpbi10b3A9IjAiIGdyaWR0b2xlcmFuY2U9IjEwIiBndWlkZXRvbGVyYW5jZT0iMTAiIGlkPSJuYW1lZHZpZXc2NDI1IiBpbmtzY2FwZTpjdXJyZW50LWxheWVyPSJzdmc2NDIzIiBpbmtzY2FwZTpjeD0iMjMuMTM1NjMyIiBpbmtzY2FwZTpjeT0iMjIuNDcxOTk0IiBpbmtzY2FwZTpwYWdlb3BhY2l0eT0iMCIgaW5rc2NhcGU6cGFnZXNoYWRvdz0iMiIgaW5rc2NhcGU6d2luZG93LWhlaWdodD0iMTAxNyIgaW5rc2NhcGU6d2luZG93LW1heGltaXplZD0iMSIgaW5rc2NhcGU6d2luZG93LXdpZHRoPSIxOTIwIiBpbmtzY2FwZTp3aW5kb3cteD0iLTgiIGlua3NjYXBlOndpbmRvdy15PSItOCIgaW5rc2NhcGU6em9vbT0iMTkuMjg4MzkzIiBvYmplY3R0b2xlcmFuY2U9IjEwIiBwYWdlY29sb3I9IiNmZmZmZmYiIHNob3dncmlkPSJmYWxzZSI+JiN4YTsJPC9zb2RpcG9kaTpuYW1lZHZpZXc+JiN4YTs8ZyBpZD0ic2hhcGUzNTA0LTIiIHRyYW5zZm9ybT0idHJhbnNsYXRlKDIuMjkwNDQ1NywtMi4yODk1MTk5KSI+JiN4YTsJPHRpdGxlIGlkPSJ0aXRsZTY0MDAiPlNoZWV0LjM1MDQ8L3RpdGxlPiYjeGE7CSYjeGE7CQk8cGF0aCBpZD0icGF0aDY0MDIiIGlua3NjYXBlOmNvbm5lY3Rvci1jdXJ2YXR1cmU9IjAiIHN0eWxlPSJmaWxsOiNGRkZGRkY7c3Ryb2tlOiNGRkZGRkY7c3Ryb2tlLXdpZHRoOjQuNTgxO3N0cm9rZS1saW5lY2FwOnJvdW5kO3N0cm9rZS1saW5lam9pbjpyb3VuZDtzdHJva2UtbWl0ZXJsaW1pdDozOyIgZD0iICAgTTE1LjA2LDQuNThsMTIuMDgsNS43N2wyLjk4LDEyLjk2bC04LjM1LDEwLjRIOC4zNkwwLDIzLjMybDIuOTgtMTIuOTdMMTUuMDYsNC41OHoiLz4mI3hhOzwvZz4mI3hhOzxnIGlkPSJzaGFwZTM1MDUtNCIgdHJhbnNmb3JtPSJ0cmFuc2xhdGUoMC44OTgyMTU3MSwtMC44ODg1OTk4NSkiPiYjeGE7CTx0aXRsZSBpZD0idGl0bGU2NDA1Ij5TaGVldC4zNTA1PC90aXRsZT4mI3hhOwk8cGF0aCBpZD0icGF0aDY0MDciIGlua3NjYXBlOmNvbm5lY3Rvci1jdXJ2YXR1cmU9IjAiIHN0eWxlPSJmaWxsOiMzMjZDRTU7IiBkPSJNMTYuMzQsMS43OEMxNi4wNSwxLjgsMTUuNzYsMS44NywxNS41LDJMNC4wNiw3LjQ2ICAgYy0wLjYsMC4yOS0xLjAzLDAuODMtMS4xOCwxLjQ3TDAuMDYsMjEuMjFjLTAuMTQsMC41OC0wLjAzLDEuMTcsMC4yOSwxLjY3YzAuMDQsMC4wNiwwLjA4LDAuMTEsMC4xMywwLjE3TDguNCwzMi45ICAgYzAuNDEsMC41MSwxLjA0LDAuODEsMS43LDAuODFoMTIuN2MwLjY3LDAsMS4zLTAuMywxLjcxLTAuODJsNy45Mi05Ljg0YzAuNDEtMC41MiwwLjU3LTEuMiwwLjQyLTEuODRMMzAuMDMsOC45MyAgIGMtMC4xNS0wLjY0LTAuNTktMS4xOC0xLjE5LTEuNDdMMTcuNCwyQzE3LjA3LDEuODQsMTYuNywxLjc2LDE2LjM0LDEuNzh6Ii8+JiN4YTs8L2c+JiN4YTs8ZyBpZD0ic2hhcGUzNTA2LTYiIHRyYW5zZm9ybT0idHJhbnNsYXRlKDAuODk4MjE1NzEsLTAuODg4NTk5ODUpIj4mI3hhOwk8dGl0bGUgaWQ9InRpdGxlNjQxMCI+U2hlZXQuMzUwNjwvdGl0bGU+JiN4YTsJPHBhdGggaWQ9InBhdGg2NDEyIiBpbmtzY2FwZTpjb25uZWN0b3ItY3VydmF0dXJlPSIwIiBzdHlsZT0iZmlsbDpub25lOyIgZD0iTTE2LjM0LDEuNzhDMTYuMDUsMS44LDE1Ljc2LDEuODcsMTUuNSwyTDQuMDYsNy40NiAgIGMtMC42LDAuMjktMS4wMywwLjgzLTEuMTgsMS40N0wwLjA2LDIxLjIxYy0wLjE0LDAuNTgtMC4wMywxLjE3LDAuMjksMS42N2MwLjA0LDAuMDYsMC4wOCwwLjExLDAuMTMsMC4xN0w4LjQsMzIuOSAgIGMwLjQxLDAuNTEsMS4wNCwwLjgxLDEuNywwLjgxaDEyLjdjMC42NywwLDEuMy0wLjMsMS43MS0wLjgybDcuOTItOS44NGMwLjQxLTAuNTIsMC41Ny0xLjIsMC40Mi0xLjg0TDMwLjAzLDguOTMgICBjLTAuMTUtMC42NC0wLjU5LTEuMTgtMS4xOS0xLjQ3TDE3LjQsMkMxNy4wNywxLjg0LDE2LjcsMS43NiwxNi4zNCwxLjc4Ii8+JiN4YTs8L2c+JiN4YTs8ZyBpZD0ic2hhcGUzNTA3LTkiIHRyYW5zZm9ybT0idHJhbnNsYXRlKDUuMjkwMzg1NywtNS4wNzA3OTk5KSI+JiN4YTsJPHRpdGxlIGlkPSJ0aXRsZTY0MTUiPlNoZWV0LjM1MDc8L3RpdGxlPiYjeGE7CSYjeGE7CQk8cGF0aCBpZD0icGF0aDY0MTciIGlua3NjYXBlOmNvbm5lY3Rvci1jdXJ2YXR1cmU9IjAiIHN0eWxlPSJmaWxsOiNGRkZGRkY7c3Ryb2tlOiNGRkZGRkY7c3Ryb2tlLXdpZHRoOjAuMDExMjtzdHJva2UtbGluZWNhcDpyb3VuZDtzdHJva2UtbGluZWpvaW46cm91bmQ7c3Ryb2tlLW1pdGVybGltaXQ6MzsiIGQ9IiAgIE0xMi4wNiwxMC4xNWMtMC4zOCwwLTAuNjgsMC4zNC0wLjY4LDAuNzZ2MC4wMWMwLDAuMDYsMCwwLjEzLDAsMC4xOGMwLjAxLDAuMjQsMC4wNiwwLjQzLDAuMDksMC42NWMwLjA2LDAuNDgsMC4xLDAuODgsMC4wNywxLjI0ICAgYy0wLjAyLDAuMTQtMC4xMywwLjI3LTAuMjIsMC4zNmwtMC4wMSwwLjI5Yy0wLjQxLDAuMDMtMC44MywwLjA5LTEuMjQsMC4xOWMtMS43OCwwLjQtMy4zMSwxLjMyLTQuNDcsMi41NSAgIGMtMC4wOC0wLjA1LTAuMjEtMC4xNC0wLjI1LTAuMTdjLTAuMTIsMC4wMS0wLjI1LDAuMDUtMC40MS0wLjA0Yy0wLjMxLTAuMjEtMC41OC0wLjQ5LTAuOTItMC44NGMtMC4xNi0wLjE2LTAuMjctMC4zMi0wLjQ1LTAuNDggICBjLTAuMDUtMC4wMy0wLjExLTAuMDgtMC4xNS0wLjEyYy0wLjE1LTAuMTEtMC4zMi0wLjE3LTAuNDgtMC4xOGMtMC4yMSwwLTAuNDIsMC4wOC0wLjU1LDAuMjRjLTAuMjMsMC4zLTAuMTYsMC43NSwwLjE3LDEuMDJoMC4wMSAgIGMwLjA0LDAuMDQsMC4xLDAuMDksMC4xNCwwLjEyYzAuMiwwLjE0LDAuMzgsMC4yMSwwLjU3LDAuMzNjMC40MSwwLjI1LDAuNzUsMC40NiwxLjAyLDAuNzFjMC4xMSwwLjEyLDAuMTIsMC4zMSwwLjE0LDAuNGwwLjIyLDAuMiAgIGMtMS4xOCwxLjc2LTEuNzIsMy45NS0xLjQsNi4xN2wtMC4yOSwwLjA5Yy0wLjA3LDAuMDktMC4xOCwwLjI1LTAuMjksMC4yOWMtMC4zNSwwLjExLTAuNzUsMC4xNS0xLjIzLDAuMiAgIGMtMC4yMiwwLjAyLTAuNDIsMC4wMS0wLjY2LDAuMDZjLTAuMDUsMC4wMS0wLjEyLDAuMDMtMC4xOCwwLjA0YzAsMCwwLDAtMC4wMSwwbDAsMGMtMC40MSwwLjEtMC42NywwLjQ3LTAuNTgsMC44NCAgIGMwLjA4LDAuMzYsMC40NywwLjU5LDAuODgsMC41aDAuMDFsMC4wMS0wLjAxYzAuMDYtMC4wMSwwLjEzLTAuMDIsMC4xOC0wLjA0YzAuMjMtMC4wNiwwLjQtMC4xNSwwLjYxLTAuMjMgICBjMC40Ni0wLjE2LDAuODMtMC4zLDEuMi0wLjM1YzAuMTUtMC4wMiwwLjMxLDAuMDksMC4zOSwwLjE0bDAuMy0wLjA2YzAuNjksMi4xNCwyLjEzLDMuODYsMy45NSw0LjkzbC0wLjEzLDAuMyAgIGMwLjA1LDAuMTIsMC4xLDAuMjgsMC4wNiwwLjM5Yy0wLjEzLDAuMzQtMC4zNiwwLjcxLTAuNjEsMS4xMmMtMC4xMywwLjE4LTAuMjYsMC4zMy0wLjM3LDAuNTRjLTAuMDMsMC4wNi0wLjA2LDAuMTMtMC4wOSwwLjE5ICAgYy0wLjE4LDAuMzctMC4wNSwwLjgxLDAuMjksMC45N2MwLjM0LDAuMTcsMC43Ny0wLjAxLDAuOTUtMC4zOWwwLDBsMCwwYzAuMDMtMC4wNSwwLjA2LTAuMTIsMC4wOC0wLjE3ICAgYzAuMS0wLjIzLDAuMTMtMC40MiwwLjItMC42M2MwLjE4LTAuNDYsMC4yOC0wLjkzLDAuNTMtMS4yM2MwLjA3LTAuMDgsMC4xOC0wLjEyLDAuMjktMC4xNWwwLjE2LTAuMjggICBjMS41OSwwLjYxLDMuMzcsMC43OCw1LjE0LDAuMzdjMC40MS0wLjA5LDAuOC0wLjIxLDEuMTgtMC4zNWMwLjA1LDAuMDgsMC4xMiwwLjIzLDAuMTUsMC4yNmMwLjExLDAuMDQsMC4yNCwwLjA2LDAuMzQsMC4yMSAgIGMwLjE5LDAuMzMsMC4zMiwwLjcsMC40OCwxLjE2YzAuMDYsMC4yMSwwLjEsMC40LDAuMiwwLjYyYzAuMDIsMC4wNiwwLjA1LDAuMTMsMC4wOCwwLjE4YzAuMTgsMC4zOCwwLjYsMC41NSwwLjk1LDAuMzkgICBjMC4zNC0wLjE3LDAuNDYtMC42LDAuMjktMC45N2MtMC4wMy0wLjA2LTAuMDctMC4xNC0wLjA5LTAuMTljLTAuMTItMC4yMS0wLjI0LTAuMzYtMC4zNy0wLjU1Yy0wLjI2LTAuNC0wLjQ3LTAuNzQtMC42MS0xLjA4ICAgYy0wLjA1LTAuMTgsMC4wMS0wLjI5LDAuMDYtMC40MWMtMC4wMy0wLjAzLTAuMDktMC4xOS0wLjEyLTAuMjdjMS45LTEuMTIsMy4yOS0yLjkxLDMuOTUtNC45N2MwLjA5LDAuMDEsMC4yNCwwLjA0LDAuMjksMC4wNSAgIGMwLjEtMC4wNywwLjItMC4xNiwwLjM5LTAuMTRjMC4zNiwwLjA1LDAuNzQsMC4xOSwxLjE5LDAuMzVjMC4yMSwwLjA4LDAuMzgsMC4xOCwwLjYxLDAuMjRjMC4wNSwwLjAxLDAuMTIsMC4wMiwwLjE4LDAuMDQgICBjMCwwLDAuMDEsMCwwLjAyLDBsMCwwYzAuNDEsMC4wOSwwLjgtMC4xMywwLjg5LTAuNWMwLjA4LTAuMzYtMC4xOC0wLjczLTAuNTgtMC44M2MtMC4wNi0wLjAyLTAuMTQtMC4wNC0wLjItMC4wNSAgIGMtMC4yNC0wLjA0LTAuNDMtMC4wMy0wLjY2LTAuMDVjLTAuNDgtMC4wNS0wLjg3LTAuMDktMS4yMy0wLjJjLTAuMTQtMC4wNi0wLjI0LTAuMjMtMC4yOS0wLjNsLTAuMjgtMC4wOCAgIGMwLjE1LTEuMDQsMC4xMS0yLjEyLTAuMTQtMy4yYy0wLjI1LTEuMDktMC42OS0yLjA4LTEuMjgtMi45NmMwLjA3LTAuMDcsMC4yLTAuMTksMC4yNC0wLjIyYzAuMDEtMC4xMywwLTAuMjUsMC4xMy0wLjM5ICAgYzAuMjctMC4yNSwwLjYxLTAuNDYsMS4wMi0wLjcyYzAuMTktMC4xMSwwLjM3LTAuMTgsMC41Ny0wLjMzYzAuMDQtMC4wMywwLjEtMC4wOCwwLjE1LTAuMTJjMC4zMy0wLjI2LDAuNC0wLjcxLDAuMTctMS4wMSAgIGMtMC4yNC0wLjI5LTAuNy0wLjMyLTEuMDMtMC4wNmMtMC4wNCwwLjA0LTAuMTEsMC4wOS0wLjE1LDAuMTJjLTAuMTgsMC4xNi0wLjMsMC4zMi0wLjQ1LDAuNDhjLTAuMzQsMC4zNC0wLjYyLDAuNjMtMC45MiwwLjg0ICAgYy0wLjE0LDAuMDctMC4zMywwLjA1LTAuNDIsMC4wNGwtMC4yNiwwLjE5Yy0xLjQ4LTEuNTYtMy41MS0yLjU1LTUuNjktMi43NWMwLTAuMDktMC4wMS0wLjI1LTAuMDEtMC4zICAgYy0wLjA5LTAuMDktMC4yLTAuMTYtMC4yMy0wLjM1Yy0wLjAzLTAuMzYsMC4wMy0wLjc2LDAuMDgtMS4yNGMwLjA0LTAuMjIsMC4wOS0wLjQxLDAuMS0wLjY1YzAtMC4wNiwwLTAuMTMsMC0wLjE5ICAgQzEyLjc1LDEwLjQ5LDEyLjQ0LDEwLjE1LDEyLjA2LDEwLjE1eiBNMTEuMiwxNS40NkwxMSwxOS4wNWgtMC4wMWwwLDBjLTAuMDIsMC4zMy0wLjI4LDAuNTgtMC42MSwwLjU4ICAgYy0wLjEzLDAtMC4yNS0wLjA0LTAuMzUtMC4xMWgtMC4wMWwtMi45NC0yLjA5bDAsMGMwLjktMC44OSwyLjA2LTEuNTUsMy4zOS0xLjg1QzEwLjcyLDE1LjUyLDEwLjk2LDE1LjQ4LDExLjIsMTUuNDZ6ICAgIE0xMi45MiwxNS40NmMxLjU2LDAuMTksMywwLjg5LDQuMSwxLjk3bC0yLjkyLDIuMDhsLTAuMDEtMC4wMWwwLDBjLTAuMjYsMC4xOS0wLjYzLDAuMTQtMC44My0wLjExYy0wLjA5LTAuMS0wLjEzLTAuMjItMC4xMy0wLjM1ICAgTDEyLjkyLDE1LjQ2eiBNNi4wMSwxOC43N2wyLjY5LDIuNDFMOC42OSwyMS4ybDAsMGMwLjI1LDAuMjEsMC4yOCwwLjU3LDAuMDgsMC44MmMtMC4wOCwwLjExLTAuMTksMC4xOC0wLjMxLDAuMjFsLTAuMDEsMC4wMSAgIGwtMy40NCwxbDAsMEM0LjgzLDIxLjYzLDUuMjEsMjAuMDgsNi4wMSwxOC43N3ogTTE4LjEsMTguNzhjMC40LDAuNjQsMC43LDEuMzcsMC44OCwyLjE1YzAuMTgsMC43NywwLjIyLDEuNTUsMC4xNSwyLjNsLTMuNDctMSAgIHYtMC4wMmwwLDBjLTAuMzEtMC4wOC0wLjUtMC40LTAuNDMtMC43MWMwLjAzLTAuMTMsMC4xLTAuMjQsMC4xOS0wLjMydi0wLjAxTDE4LjEsMTguNzh6IE0xMS41MSwyMS4zNmgxLjFsMC42OSwwLjg2bC0wLjI1LDEuMDcgICBsLTAuOTksMC40OGwtMC45OS0wLjQ4bC0wLjI1LTEuMDdMMTEuNTEsMjEuMzZ6IE0xNS4wNCwyNC4yOWMwLjA1LDAsMC4xLDAuMDEsMC4xNCwwLjAxaDAuMDFsMy41NiwwLjZsMCwwICAgYy0wLjUyLDEuNDYtMS41MiwyLjc0LTIuODUsMy41OGwtMS4zOS0zLjM0aDAuMDFsMCwwYy0wLjEzLTAuMywwLTAuNjQsMC4yOS0wLjc5QzE0Ljg5LDI0LjMyLDE0Ljk2LDI0LjMsMTUuMDQsMjQuMjl6IE05LjA1LDI0LjMxICAgYzAuMjcsMCwwLjUyLDAuMTksMC41OCwwLjQ3YzAuMDMsMC4xMywwLjAyLDAuMjYtMC4wMywwLjM3bDAuMDEsMC4wMWwtMS4zNywzLjMxbDAsMGMtMS4yOC0wLjgyLTIuMy0yLjA1LTIuODUtMy41NmwzLjU0LTAuNnYwLjAxICAgbDAsMEM4Ljk3LDI0LjMxLDkuMDEsMjQuMzEsOS4wNSwyNC4zMXogTTEyLjA0LDI1Ljc2YzAuMDktMC4wMSwwLjE5LDAuMDIsMC4yOCwwLjA2YzAuMTIsMC4wNiwwLjIxLDAuMTUsMC4yNywwLjI2aDAuMDFsMS43NSwzLjE1ICAgbDAsMGMtMC4yMywwLjA3LTAuNDYsMC4xNC0wLjcsMC4xOWMtMS4zMywwLjMtMi42NiwwLjIxLTMuODYtMC4ybDEuNzQtMy4xNGwwLDBsMCwwQzExLjYzLDI1Ljg4LDExLjgzLDI1Ljc3LDEyLjA0LDI1Ljc2eiIvPiYjeGE7PC9nPiYjeGE7PC9zdmc+;sketch=1;hachureGap=4;jiggle=2;curveFitting=1;fontFamily=Architects Daughter;fontSource=https%3A%2F%2Ffonts.googleapis.com%2Fcss%3Ffamily%3DArchitects%2BDaughter;fontSize=20;" vertex="1" parent="1">
          <mxGeometry x="39" y="138" width="35" height="34" as="geometry" />
        </mxCell>
        <mxCell id="esvKRe-U5YeSRbtVHKv_-82" style="edgeStyle=orthogonalEdgeStyle;rounded=0;sketch=1;hachureGap=4;jiggle=2;curveFitting=1;orthogonalLoop=1;jettySize=auto;html=1;exitX=0.5;exitY=1;exitDx=0;exitDy=0;entryX=0.81;entryY=0.034;entryDx=0;entryDy=0;entryPerimeter=0;fontFamily=Architects Daughter;fontSource=https%3A%2F%2Ffonts.googleapis.com%2Fcss%3Ffamily%3DArchitects%2BDaughter;fontSize=16;dashed=1;dashPattern=8 8;" edge="1" parent="1" source="esvKRe-U5YeSRbtVHKv_-12" target="esvKRe-U5YeSRbtVHKv_-80">
          <mxGeometry relative="1" as="geometry" />
        </mxCell>
        <mxCell id="esvKRe-U5YeSRbtVHKv_-83" value="" style="rounded=0;whiteSpace=wrap;html=1;sketch=1;hachureGap=4;jiggle=2;curveFitting=1;fontFamily=Architects Daughter;fontSource=https%3A%2F%2Ffonts.googleapis.com%2Fcss%3Ffamily%3DArchitects%2BDaughter;fontSize=20;" vertex="1" parent="1">
          <mxGeometry x="579" y="53.5" width="201" height="104" as="geometry" />
        </mxCell>
        <mxCell id="esvKRe-U5YeSRbtVHKv_-85" value="" style="sketch=0;html=1;dashed=0;whitespace=wrap;fillColor=#2875E2;strokeColor=#ffffff;points=[[0.005,0.63,0],[0.1,0.2,0],[0.9,0.2,0],[0.5,0,0],[0.995,0.63,0],[0.72,0.99,0],[0.5,1,0],[0.28,0.99,0]];verticalLabelPosition=bottom;align=center;verticalAlign=top;shape=mxgraph.kubernetes.icon;prIcon=pod;hachureGap=4;jiggle=2;curveFitting=1;fontFamily=Architects Daughter;fontSource=https%3A%2F%2Ffonts.googleapis.com%2Fcss%3Ffamily%3DArchitects%2BDaughter;fontSize=20;" vertex="1" parent="1">
          <mxGeometry x="570" y="43" width="30" height="28" as="geometry" />
        </mxCell>
        <mxCell id="esvKRe-U5YeSRbtVHKv_-98" style="rounded=0;sketch=1;hachureGap=4;jiggle=2;curveFitting=1;orthogonalLoop=1;jettySize=auto;html=1;exitX=0;exitY=0.25;exitDx=0;exitDy=0;entryX=1;entryY=0.5;entryDx=0;entryDy=0;fontFamily=Architects Daughter;fontSource=https%3A%2F%2Ffonts.googleapis.com%2Fcss%3Ffamily%3DArchitects%2BDaughter;fontSize=16;dashed=1;dashPattern=8 8;" edge="1" parent="1" source="esvKRe-U5YeSRbtVHKv_-14" target="esvKRe-U5YeSRbtVHKv_-12">
          <mxGeometry relative="1" as="geometry" />
        </mxCell>
        <mxCell id="esvKRe-U5YeSRbtVHKv_-14" value="" style="rounded=1;whiteSpace=wrap;html=1;sketch=1;hachureGap=4;jiggle=2;curveFitting=1;fontFamily=Architects Daughter;fontSource=https%3A%2F%2Ffonts.googleapis.com%2Fcss%3Ffamily%3DArchitects%2BDaughter;fontSize=14;" vertex="1" parent="1">
          <mxGeometry x="599.5" y="75.5" width="160" height="43" as="geometry" />
        </mxCell>
        <mxCell id="esvKRe-U5YeSRbtVHKv_-73" value="" style="shape=image;html=1;verticalAlign=top;verticalLabelPosition=bottom;labelBackgroundColor=#ffffff;imageAspect=0;aspect=fixed;image=https://cdn3.iconfinder.com/data/icons/142-mini-country-flags-16x16px/32/flag-canada2x.png;sketch=1;hachureGap=4;jiggle=2;curveFitting=1;fontFamily=Architects Daughter;fontSource=https%3A%2F%2Ffonts.googleapis.com%2Fcss%3Ffamily%3DArchitects%2BDaughter;fontSize=20;" vertex="1" parent="1">
          <mxGeometry x="609.5" y="81" width="32" height="32" as="geometry" />
        </mxCell>
        <mxCell id="esvKRe-U5YeSRbtVHKv_-74" value="CIDR-Allocator" style="text;html=1;align=center;verticalAlign=middle;resizable=0;points=[];autosize=1;strokeColor=none;fillColor=none;fontSize=14;fontFamily=Architects Daughter;fontStyle=1" vertex="1" parent="1">
          <mxGeometry x="638.5" y="82.5" width="120" height="30" as="geometry" />
        </mxCell>
        <mxCell id="esvKRe-U5YeSRbtVHKv_-88" value="" style="group" vertex="1" connectable="0" parent="1">
          <mxGeometry x="582" y="200" width="310" height="183" as="geometry" />
        </mxCell>
        <mxCell id="esvKRe-U5YeSRbtVHKv_-13" value="" style="rounded=0;whiteSpace=wrap;html=1;sketch=1;hachureGap=4;jiggle=2;curveFitting=1;fontFamily=Architects Daughter;fontSource=https%3A%2F%2Ffonts.googleapis.com%2Fcss%3Ffamily%3DArchitects%2BDaughter;fontSize=20;" vertex="1" parent="esvKRe-U5YeSRbtVHKv_-88">
          <mxGeometry width="310" height="183" as="geometry" />
        </mxCell>
        <mxCell id="esvKRe-U5YeSRbtVHKv_-16" value="&lt;code&gt;v1alpha1.&lt;/code&gt;NodeCIDRAllocation" style="text;html=1;align=center;verticalAlign=middle;resizable=0;points=[];autosize=1;strokeColor=none;fillColor=none;fontSize=14;fontFamily=Architects Daughter;fontStyle=1" vertex="1" parent="esvKRe-U5YeSRbtVHKv_-88">
          <mxGeometry x="32" y="10" width="220" height="30" as="geometry" />
        </mxCell>
        <mxCell id="esvKRe-U5YeSRbtVHKv_-17" value="" style="sketch=0;html=1;dashed=0;whitespace=wrap;fillColor=#2875E2;strokeColor=#ffffff;points=[[0.005,0.63,0],[0.1,0.2,0],[0.9,0.2,0],[0.5,0,0],[0.995,0.63,0],[0.72,0.99,0],[0.5,1,0],[0.28,0.99,0]];verticalLabelPosition=bottom;align=center;verticalAlign=top;shape=mxgraph.kubernetes.icon;prIcon=crd;hachureGap=4;jiggle=2;curveFitting=1;fontFamily=Architects Daughter;fontSource=https%3A%2F%2Ffonts.googleapis.com%2Fcss%3Ffamily%3DArchitects%2BDaughter;fontSize=20;" vertex="1" parent="esvKRe-U5YeSRbtVHKv_-88">
          <mxGeometry x="10" y="7.5" width="30" height="32.5" as="geometry" />
        </mxCell>
        <mxCell id="esvKRe-U5YeSRbtVHKv_-72" value="" style="shape=image;verticalLabelPosition=bottom;labelBackgroundColor=default;verticalAlign=top;aspect=fixed;imageAspect=0;image=data:image/png,iVBORw0KGgoAAAANSUhEUgAAAXYAAAC4CAYAAAD3y8cVAAAAAXNSR0IArs4c6QAAAARnQU1BAACxjwv8YQUAAAAJcEhZcwAADsMAAA7DAcdvqGQAAB7qSURBVHhe7Z29VuM8E8dn32shW3C4AnMFhIaKdrtQkmY7SjqaUJLuaaloSK6AXAGHYsO95NWnLcmyRv5ICOb/O8e7xLK+xvJYHtkzv3YCAgAAMBr+Z/4HAAAwEqDYAQBgZOxJsX/S4/kv+vXrhtZmD4m/bn79ovPHT/O74vPxPDh238TaB/qj5Ro7xz6QP8hkfdNhnHQfX1oXybxd8ut6b3oP6v7XxwFn7Bd0NSPaPL+KZrt80uvzhmh2JY4AQ6AG5/ljIGeQS1/5Qf7DsX5ZUrH4m68b1I3gD9G1UDYdOLl9I7nsuFt1y9+bnu237Emxn9DtmxDO7sk7IRdas9OrN+K39KH0+iHVerx94FBA/iCDz0e6XxZ0fXlidnCs6WZKtNq90e1vs+tbMVz7o4p9fWMfRcLHAfuooc0q9hj30SP5KHNxRTPa0LOr2dcvtBR7Xb3u1R/MfFT5skJ1Z9PHhI/+fvtbtE9hH4Nix8T6f051y4NJbz1ryyu/ST62b5O5uFNu5jTxytBlN5rCynJS/TfHMvKvsGVVfUjLP6f/Yfv0xpt/KprGR1p++hhJ0/WRm18cSOdlmtiCcdJUfp58ODLkx7SPpXP/fD5fn2kzu6Nbo9e1fMPjtSx0+y/oKWOykFt/nZj8q/FT4cq4fn6a689rfxbydUeX7aLYzVbmh0A8kezEs9Buq35td4tC/BbZ7DHyeDHf3jlZNKtZdL9fnvntVBj97Ryv63P2bRe7gordwhyg0p3jG4m2z/TPqd/vn+1/VV/YPs1qJ55N8trhwZfPyUfSJIMwr0Udr/Zz/be/nTo9+ev8hfphymqSQUr+2f1368ujSTYuqWNkmivCNvJXqH5X109IunxePhys/Jj2sfTqn4u+hvxyIvui40jQsD+7/mh+K/+qDepcl8fV08Py+9WfT23GLm1MT84tQ5lPAkTDymNObu/EfPud/mXe0rU55oO26teaXpaivHK6Ln8XtPhbNeDi74KKmvlmRqu3W/FALzj5TWfiKeBDF6ipHZ/J5ys9b0TZjgB0/5b04tyVZyvxqGRmETH56Dvvjna2jS1pLj9XPnEmp4X5y8wazFRj+7Gh4nSS3X9W/uLsPp5PaH626iSDdP9FejleTujyuhDDyaucp+v4EORcHymkzVh00CvDJe/648ZfE7z8uPZxDNE/hXySLxbkDHXBBf0VmnPpDEZdX/76XN/zJ+H0n5selj9E/TnUTTHhY9RUCI4lvLATKHOMURShGebznxDRhuYTp/7JXOwJ8E6kVqKVoN9ou6CqjDaPkduPel00IUcffi258mng5PcZ0fs/IQ9xgb/PaPb+Iv76pH/vRGe/habI7X9C/pLNfErSGjH8uolegK8ubL3wrm5KmfQaH5JO14dFyzopl17lc3Dyy2hfkqH690mP90Iz3NUnBSeX11Qs5biV1Cc6LHuRbwv9t9fzWxEo9jXdCEVBi61eGc5ZHVbKpqD8a6saXPG7rThRW1N3uVUzlBzkxavzbWlBc5rUjWAt0Iu7x0MP+UxOxexePC2Jc0bXf+nqzM7EU+evff/Fo70aN8tpW/tvJsupuTD0U8Fbm8Eh6D4+OlwfEd4bH2+HKZ+FkV9z+/Lo3T/z5Bi9P5xc0nXhTAyLa8peW92HfFvpvwOdXwHzVoxoCHNHWT+IGaOzwJGDevxY3tN9eHdXJ03MSB/6KGKXE5KT1GzM08TUudDXN9PIIyGHkJu8cNrOBjky5aNm5jFzgzKbEP17/aBTcTXI87B8eRCK+4zkhH24/gsunszMeEjlbmZo7o3NfVSwlLMibmEsPj4a5Vcjfn005zemj/mfTJnw11+Uxv5z8stsX2P5w/RP6hQxDQ8mfJYTur2T41ZPDGOz+nw6ytehi/6r6F9/I+LkeujFAL0AoBZpFjPHuF8tDpSbuxIQS1dbtdijMYuL0cWBSBnB4oNfp4+4ATbmzWufbZvZIvm96uUiR23xo9/iabr8tHwsvhxs/0ze8vhYO1P9FyUk5a/LdxfjbDt0lkjb1ea3L9V/f3yaLey/WtCVafXxlR4fFXH5hfWL/d71UdGUX1LrQ2P/wvJ5+SgS/c+RX6p9ikT5ku79k8jx58urjh2jYf3c+OLqzxufXpp3MtqO37b151NT7GkiDQfgUARvQGn0Rd7mzZgfyzeQn1J8R6tgvo/+Y0wxABwRscVdZeM0i78gzdHLb00P802PxVtggWIH34eLJ1rN6m8FnTmvl4EERy+/+htWoBvwxw4AACMDM3YAABgZUOwAADAyoNgBAGBkQLEDAMDICBS7djfJu0C1binbuLyMo1xxDvWFpv0izv1EXO3r/vVjp/aVX+bprZKn687T2Wz5QT65+ecikj/aNntcvd/Wtaze6uePSz8Ohht/AIyREc7YCyre7zsr8t5IP+XmFTL5wpHc/qNXo4BsgIkdrWbi52ylj/E8IM5oZfLtdis6m0/8G5VA+WJR6Q2+TqSvDZGymAW+7wWlnxTVgDpc+iEY9GYPwA+ko2I/7gg419dnNYV2GMRM8l6G8tp67+Ke3N52lNMFPW0XVCybblTaN4f22FghAxTQ9SXdXs2oHopwDCACEwApGMVef6RPP6rr49tEAFLRZmqY/F1nbZdXdNao0Gyf7FZ/nOfa50VAcduovNK1CeWVgfF3Hr9R6S/1CqHEqxq1K1b1JaHy5tjd93gcXn41k1JwHpsiyNixlYpAxJuKUu3LG58AfHcSil1eBBPxoL+greMWNudRfTm9p1PjQU596fanurDlRT0lY4IQ23YROvseggu6OospNNMnGQCirP+dps7Fz7UvTF+dCQVkFZf6ZNt4ShyMuj/0jTTPKKU0pXfxdOC5XXVdnhpvkMM9vfDyEwKqmaJcU5NUzC9XVdpqtqSpkZ8dW0rmhRx39rjc8ZfRPkFqfAIwBhoU+54i4IiZnAxOyzvG7xeBSHJxdVZ3b8tFCGLbV3fs3yaC0VBoG/uWYvdEHSfS+rg3blSHMsdw8hMMFkGnCxntk3SPQATA9yCq2PcXAUcy9Iy2gYu/tFARghyyIgQl2qccJtV9bfhl5ocJzKMp0IX2S+0r7XpEIe0b3IYi7Akrvy+OEJR1fgEYP1HFrmaE4lF3PxFwhlZ8TcjZ6ju9vJqfjYSKk2tfEKhAbWYGqAJVDGn6EKjwgQ12e3nzojmVDyZqxuqaaqzi9Gesw1K/8Xx5hCCPY4uABcD+abax7yMCTrgQuL7Zz+KpQcZHfH9+Nr8EXIQgrn1sBCMdbFcqVv9V+kf/ySEXObsVirlY/FeaDny0qWV5r+WkzDCebVpvUne6AYA7w0ZYGiaCTn4Eo4AhI0AB8J0RF76DdiTvOt0XSkFF8dDO5bkIHxFH9GGElzL6itjk/lgEGBshpbafIRJIQLff3WejrzhtMCkKtn0RGQRl+FFSXHk2yM/md+s2m+/Uv35+bB65T/bVS7PIPqhoM3nnrzldwshPEPbfPcZPE+W2ikDUt306f3J8AjAC4LYXAABGRuJ1RwAAAN8RKHYAABgZUOwAADAyoNgBAGBkQLEDAMDIgGIHAICRAcUOAAAj4+gVO4IuAABAO/ai2L9aGeNmAAD4ycAUAwAAI8NX7DJIws1a/Kc9A96sdcSZMMqMFwHHmRnb6DapCDgSL38kCo6bzkYwcvIPVb84YhAnZAAA8BXUZ+zLKd2fblUUm+V0Qh93MqBD5fFQKsWmCEI5EXCk8m2KoCMJy1dlOaTyD1E/AAB8dyKmmBndWS1Yc3faP4JQMoJORoSlvhF48vL3j+AEAABfRTsbe1YEIQY2gg4TYalvBJ59RvABAIAjoMPiaSKCEEtOBJ1UBKO+EXj65gcAgOOnnWJnIwhp8iPgBBF0siMsWYL8hs71l4j9cjYP2zsA4BvScsZ+QrdvW1q8TytTRkwBXjzRauaabOxbKVXoOL3/nk4X7oz5gp50PD6dfn9KW29GzeU3dK4fAAC+P4igBAAAI6ODjR0AAMAxA8UOAAAjA4odAABGBhQ7AACMDCh2AAAYGVDsAAAwMqDYAQBgZECxg14oV8kH/ELXumbWW93lMpd+HFh32MfaPvDdgWL/Ag6tDMeEdc3c5OOHSz8EOL/gq4FiB+DgSNcc0gndEzU7qAagOwMrdv2IebM2TrTU5kcvkjRGMOoZwaminxMvv32yHXq/fswPH591XedOA9P5W0Z4cvuQKZ9mcs6PLdNudXOB2z42wlWHc+DLb2hzBd8/caJ8185BH5ral3N+7TFh3opU+3LOHwAC6StmOLa7RUE7omK32Oo94ol4R8VCpGi2i2I3W5kfAi99NZN+a3aFyCyPk3/PVrpMua883ikgLF+z2okH8ch+HlVvYz5drtt+1eagf1y9qWOS/cuQTxru/Jh0p35dz0z0XBO2L+xLsv0ZyPJc+TbmV7Ko2lUjms73T+cLzrFDTvtCmUTp1D7u/AGg2YspZraq/LOHEYr4CEZDRHDqGQGp0eXvBcnmLl/KORo93i+puL7062kRUconp38p+eTReH4+X+l5M6OVc4JObu9EjUtSXWYjXO05wlZfuP4J1i9LKSCvDS5f3T5J6voCQHJ4G3ufCEZDRHBikBeu9hxsyg8ew5WiWr7ox2NzIZaKVsDlTzJI/9zHdL1ZUxDL9iNS14ROvbCziQhXWe1n2rfPCFds/z7p37tQnFcNWl3ype0DII8DK3ZxUfeOYNQnglMeUjnrcre0oDlNXM2jgo0s6f7xU+j1Z9GXv7UFsGR+lr79M08rztY0+8xjSx+etklFuJJw7U+1b4jx0Zawf6KHjR08jvYBwPHFb8WIC6XNjCczglM5K+ywcOdzQjIYk88J3d7NaPP8QA9Cr19fpjRuLL/Y2xThKbt/e+LiSj32T50b0fpmSktr8uEiXA3e/pbjg4Prnzhfl9cyEMufzAXJePvyI3gFsO0DIBMx6xgQvbjjLTzJRSJncUcvBskFILMItHDSnQWlagFKl1ktDtoFJGerLR51XzxVi1HJsiWm/MgKW17+8LhqMSzZvyz5pODPT9m3sG7LdrEr3LRa/pzz00xyfMTKtsepA7h0CdM/gd8G/5h0+yri57dv+3LOHwC7HSIodUI+EUyJVn3NHAAAMDxQ7B2Q7zFP3xe07frWDQAA7JEvtrF/L+yHKVDqAIBjBjN2AAAYGZixAwDAyIBiBwCAkQHFDgAAIwOKHQAARgYUOwAAjAwodgAAGBlQ7AAAMDKiit2PEOO6VY1FcKm7hfXyxxxxMRFq9Cf7DXkBAAAkqSl2GbpLfVlp3ZKKLfSHspxqPykybbsoxO8qfJf63J5WZd7V2ZwmroKW4d0mczoz+dWGrzgBAGAw4qYYxuXozHF+pSO8WB/dfAQdLkKNpmcEJAAA+MHUFHu3CEAb+tiK/9gIOhkRagAAAPQiOmNvFQFIKfOCTifmd0YEoOYINQAAAPoSN8WUxCMAuawfxIx8dqcVNxtBJzdCDRZPAQCgKzXFHr4RoxZSA4P4cuqky4XSMv2Ebt/ELP996pXhKuiaqSdIBwAA0I+Wbnvl644T+rhD5CAAADhWGFMMAACA7wYUOwAAjAxEUAIAgJGBGTsAAIwMKHYAABgZUOwAADAyoNgBAGBkfLlil94kUx8ocemHRbst9j6++lV5thwC1d89lQ0A+Blgxt4B6d1S+8DZ0Wq2pOmACrj007OamT0AANAOKPaeKLfEtKQXTK0BAEfCXhS772+mPpt10yfzyqmvJZWuTBXS26QM2GGOOQ88inn1R8w4oT+cZASoSHqa0FwT9p9L5+HbBydqAPxkBlfsUvG+XAWmCkfBSKXkRliSEZhcuHTFckq/7k91lCflUazyFhnmDyM4yfalIkRx6SHKu2WxIB1bRPvSmZ+57X93TDVcOk/b9gEAfh6DK3ZpI3YVzcWVYyv+fKT7IMKSB5deMqOVja508pvObKAPoR65CE4KJkIUl+55t5RK1rbl85WeN6JtjgB0hCljquHSc+HajwhUAPxohjfFhIGqp0uTYDmj30ltw6ULZldCdVm0ElO6ko3gpG88qQhRXLrEXTz1lOf2w6tLM6FT+9DBpWeQ0z4AwM9mYMW+phuhSGmxrRRf7e0OGx+1CS6dg4/gVL550hAhiktvx5Y+6trcgUuvM2z7AABjYy+LpxVC0bszdmM2eS4jW9/4i6NcOgcbwSmEixDFR5DyuLhSZpWpo2jXN1NaWhs8l96apvZh8RSAH42Y+Q3KdlFIb5FmK3aLxWxHxWK3NenigF1h0+X+Vbt0Vf5sZX7F2O4WhcnvlmNSxQNEY5okna7LTla/W+3EM0pj+en0SNvVJuRoDuLarzF1RNMAAGMHbnsBAGBk7NkUAwAA4NBAsQMAwMiAYgcAgJEBxQ4AACMDih0AAEYGFDsAAIwMKHYAABgZI1Xs1jVu4DUx9GPjbNXHoOarTbt1+ly/oX5F//I9t70dvi5tlV+5Rw77keqfxKbrLXSrDADYL+NT7EoR/SG6Dn3UCE5u6U35WHG2rQyUUdDpRB4gFdKUqHTytaLZctpOMaXqH6B85Za4dNvb3ldM2/zrlyUVi7+V07Vk/yTyxjWh5+vKX9Cb66gHALB/xIU3IuSn9DPxr/xztiP7dwL1iX7CR4BKz/40v2P9rcqv3AsoVD3BvkZa5lfuHdw0vn+cPAEA+2dkM3bpwvfJcenLoPy/Sy/AnTxwRWhZf1vWL7T03BqLJwDZAbL+6Bla5v98fabN7M7xjMn175P+vQ8pTwBAF3704qlSXEnPijJwh5jPXl/uKWBFh/KLU9JWI7leMKGPuy3Fgkw1kp1/TQ/zTUslLV0QF3RK7lrGeRndCgBwGH6wYjeK664pypC2hy9pRnd7sRF3L38r475Onul62y0sXlZ+Obtv607YBjq5J/rP2Nd1UJD80H8AgP4coWIP3hoRW6cXUxg+H++Timt9M6G5mH0utvsxrXQufzOn6fM1bcvgIS0DdWTl1yaa5pteA8qfvujTf1W+TqH/AAC9OELFbuJ1OluXWWkaPVtvMoGogNEydurWj7w0FJ3Ln5wKtUm+wlWz5BllWUxy85vYrN1M5TF7vX3rCABwEITiHCept1ISaTpQCPOWSRkMJPHWS0Mdfcv336IxgTnCt1B65pfHFMkGClL9c97yaffWDwBgCEam2PkIRELV7GR0obji0mn1/EHUpEbFydXft3xJUEfs1cJe+SOvRJbkyNcoc5sGpQ7AwUEEJeAhzUSTjzvaDW//AgAcCCh24CAXrvWXsdDrAHxfoNgBAGBk/OgPlAAAYIxAsQMAwMiAYgcAgJEBxQ4AACMDih0AAEbG0St2+V51uyhB0rmW72umTSALVV+ZF86rAADfj5HN2KVSn9D8bOX5mmkTwefk9k3nWzVFCOpP+5sVAADkMy7FrpxXEQI9AAB+NAMrdm0GuVm7rnfDQAuhqaRu7nCDLU/mdZ+0jcGYldtYouV9ejbcKphzBDZ/GDTbHGPNPKpPmzlNymNcGaXlo8qQfoxV7FF9TN3UZOSPpwIAfiR7mbEvp/d0utVmkNVsQ/M/VsHUTSXbxTtNHeWlgi2Tm16YFE2YvjoTCrJUYBf0JINTW6UZceSezs/D5pcKdzKnszJgtdjetJtca+ZRfSpsQGm5Wfe9vHwUyyn9uj/V+VUkiz+IUgQAqBDKY0C09z/PYaB072o9/Cmvg6HHQe3xUOVR6b6nQN8NbMTzYCSPQrmV1R4Gq/a0zR9razq/8mwY87joELq2LeHkI1B5vWP8dAAAOKyNfftBdcPKhE69SbkbbDnAhl6bWDOF2MTsuF6m4OLJzHgLMcE1M942+WOw+XsGc86Sj2B25URd0oFJ4LQLAGA5gsXTMDTbO/1LmhVk5CFrwrBbcySik9/S6u6W2S5/HT7/e7oDLWkZ+g4A8OM5rGK/uFLxL6eO7Xt9M61ij6rFzw09vxrFuL7xF09PLum6EDPmh7rtvIn1y1Lo4mu6lIq3Q34PNv8JXV4XtGFs3upms3km280STj7ZYPEUgB+NmHEOCGNjV2ibsKxabaGtWdmZnbRa/kgUH5vu5g3TShL5Y2lqc+3qqfwabQdvTpd4UYa88tPyUWWzBnVTRqReAMD4gT92AAAYGUdgYwcAADAkUOwAADAyoNgBAGBkQLEDAMDIgGIHAICRAcUOAAAjA4odAABGxugVO4Ja/HCUe+O6a2gAxgxm7Hug780EN6PhkC4lisVfx2ka+GowvvcPFDsYL5+PdL8s6Fo5CgLgB6EcCxwN1teM6y8l9JUe+moJ/ZeHfljEFvhM8dI7+FMJy/d9pftpevP74Oev2p+bv+YTJ9U/Tz458uWI+9Mp3EKY9rF07p9P3a9OrP+ubyObbn5KAl9FZZmOv/+q71z5klB+/Pj18wfpUdn28xXUVL8en2F7dV3u+U/n99P0lrg+3D5ImYvCbPpsZWXZdgyPn6NU7O6JUiexPLkm3Rnp4WBTx4fpzuAI0/3yecLyYqSOkWlO9dH6k3UYheKW4ZIun5Mvjy8/XZ6n1Jn2sfTqn4tWOH45tv/VfiXrcvzodC+PbI9Tvj7eqVPdhKw888pPjV/1O3E+fPk39b+7Yk/XH5FpTD5Mvaljkv0zY0OONy032ZbIGATHqdgbB466iOIzBpXHu8g0/iCSxwZ390ieFHpApY/PGdwlwYUhaTPwWbzyecWVpn5hq7Y6O1q3L6Bf/xyi+yP998YELx99/t0x6MqEKZ8bv4L0+HLbamg5fjnS9UtxuOdH99dVqlx+iTomOuaY/slzYeRXlVFvAzh0BKW+HDICUwMybqkKM2rLaLsIFAa6ni5NQg4ZEZp6lc9xQVdCCy1f7Dsmn/T6vKHidFL+7hVBarD+fdLj/ZJmdzrWLM+GPrbmzxxaR7Ay5WeM3+T4GmD8cnDj++Lvgorli4lI9krPmxndOVFmel0fB+jfT2EEi6f7jcAUwwalFvMGWtCcJpGg2XHWdCMGqmhAVbeYArWlOULTMOWzyGDa6sLTgbffAuH1jSDVu39G4WTdX5QyKai8Nw0NW349QlZ6fPUfvxzJ+lWwmSXdP34KMT+Lc1F/46j79SHZf/9+At9LsR8qAlM5K+Tefz4hFXkvoDFCUg2hqCIzzub8eRGaKuLlszT2f00vy+DC86aqme1rLH+Y/q0fpPLPe8VRHruZ3XmKo3wike3s+cTjld86QlYwvrIjgAm5SPn2fqUwNr5P6PZuJobnAz0IvZ5+46jl9dE3whmoEBfnEcHbOLUdjnay6WoLbXXKJuek1fLrOsr8yTJCe6ixMabyGvzjKruhtkE6+xcxW3Bzfolfhtic/Onyc+QrSPS/Vrfcgvyp9ikS5Uu6908SsdOWRM69bxB32iY30b6YjT3MU5JRPjN++fGVMX5tHbX9PHnj25QfkUPf6yPZP9jYs0EEJZCPnMFOnul66z4ay9nhlN4X25pJ5iuQH79MPu6CJwnLJz2eT+jjjrOJd2Xf5R8L+pzTauz9/L7gAyWQT2zxT9mQic4aV6wPyZoe5psei7cgh24B1sEhgWIH+Vw80WpWf2vh7GhmbjlvqICurG/0OZ++L2j7lvvGEfgKYIoBAICRgRk7AACMDCh2AAAYGVDsAAAwMqDYAQBgZIxescOp/w8HEZQOirre7BtTkPuXgRn7Huh7M8HNaDgQQemwlH5iVhEfPuBgQLGD8fKJCErgZ3Jkil1+kv2LbtbGiZHazgOHUPqY1OOe/ZBCbp4TMIOb3mVm7OUXm/XpZB9DVZ2bOU3KY/w++Pmr9ufmlwrLc10b9KGp/Dz5coTy19u5WwjTPpbO/fOR3gd9B1+2/+anRJpqkuUHxwu89Gjf+jjh4uXbXH/e+U21X41B2WFlwtLHeOdWkCt/8IXID5SOB+sAqHIKpJwFlY6ETLrjfEg7haqcSanjw3THEVGY7pfPE5YXI3WMTHN9J8XqT9ahHCGFwRwq0uVz8uXx5RdxwMS0j6VX/1y0oyq/HN1eb1/MyVdCHn7/m+rv6YSrLL8u33T9/PlN5zf9d9uunKJV5WXL33HYBQ7P9/LuqAZZOFicCzgYhBL/QpXH+umxPCn0wE8fzykHj0CxSFL5wwuTxSufV2xp6spStdXZ0bp9Af365xDdn6nYG89v//GThpMvVz/XP779uv/uNVZvk0dK/lDsX8b3srEjghIiKGX177NlBKWK5Pnde4QfRr5968/Nn4oQtdfxBYZiBIuniKBUMUz5LGOKoBQhfX4PEOEnKd++9ffJf6DxBXrzvRQ7IighgpJHvH9cBKX8CEmHjmDEyLdvhKHBIxR1HF9g/4jBc0Tk2IC1zU82XW2hfU/ZDJ20Wn5dR5k/WUbdRqhswKm8Bv+40Ibp7EcEpRrd+yeJ2JFd3PEh6w/6z5/fjPFjx2htPw8v31T9Oec33X5Vf6NBPWxffHx5ZdvjqgaAAwC3vSAfOcP91hGUjpxvIF/wPcAHSiAfRFDaL0cvX/BdwIwdtEJ+nBKaVcWTO6IWDQTkC4YAih0AAEYGTDEAADAyoNgBAGBkQLEDAMDIgGIHAICRAcUOAACjguj/Um01wJ2w2Q0AAAAASUVORK5CYII=;" vertex="1" parent="esvKRe-U5YeSRbtVHKv_-88">
          <mxGeometry x="20" y="55" width="231.72" height="114" as="geometry" />
        </mxCell>
        <mxCell id="esvKRe-U5YeSRbtVHKv_-95" value="&lt;b&gt;hostNetwork&lt;/b&gt;: &lt;b style=&quot;&quot;&gt;&lt;font color=&quot;#009900&quot;&gt;true&lt;/font&gt;&lt;/b&gt;" style="text;html=1;align=center;verticalAlign=middle;resizable=0;points=[];autosize=1;strokeColor=none;fillColor=none;fontSize=14;fontFamily=Architects Daughter;" vertex="1" parent="1">
          <mxGeometry x="627.5" y="123.5" width="140" height="30" as="geometry" />
        </mxCell>
        <mxCell id="esvKRe-U5YeSRbtVHKv_-96" value="&lt;b&gt;allocatable.pods: &lt;/b&gt;60" style="rounded=0;whiteSpace=wrap;html=1;sketch=1;hachureGap=4;jiggle=2;curveFitting=1;fontFamily=Architects Daughter;fontSource=https%3A%2F%2Ffonts.googleapis.com%2Fcss%3Ffamily%3DArchitects%2BDaughter;fontSize=16;" vertex="1" parent="1">
          <mxGeometry x="150" y="69.5" width="185" height="34" as="geometry" />
        </mxCell>
        <mxCell id="esvKRe-U5YeSRbtVHKv_-100" style="rounded=0;sketch=1;hachureGap=4;jiggle=2;curveFitting=1;orthogonalLoop=1;jettySize=auto;html=1;exitX=0.117;exitY=0.008;exitDx=0;exitDy=0;entryX=0.113;entryY=1.016;entryDx=0;entryDy=0;entryPerimeter=0;fontFamily=Architects Daughter;fontSource=https%3A%2F%2Ffonts.googleapis.com%2Fcss%3Ffamily%3DArchitects%2BDaughter;fontSize=16;exitPerimeter=0;dashed=1;dashPattern=8 8;" edge="1" parent="1" source="esvKRe-U5YeSRbtVHKv_-13" target="esvKRe-U5YeSRbtVHKv_-14">
          <mxGeometry relative="1" as="geometry" />
        </mxCell>
      </root>
    </mxGraphModel>
  </diagram>
</mxfile>
